<svg xmlns="http://www.w3.org/2000/svg" width="24" height="24" viewBox="0 0 24 24">
    <g fill="none" fill-rule="evenodd">
        <g>
            <g>
                <path d="M0 0L24 0 24 24 0 24z" transform="translate(-64 -236) translate(64 236)"/>
                <path fill="#E1E1E1" fill-rule="nonzero" d="M21 2H3v18h6l3 3 3-3h6V2zm-9 3.3c1.49 0 2.7 1.21 2.7 2.7 0 1.49-1.21 2.7-2.7 2.7-1.49 0-2.7-1.21-2.7-2.7 0-1.49 1.21-2.7 2.7-2.7zM18 16H6v-.9c0-2 4-3.1 6-3.1s6 1.1 6 3.1v.9z" transform="translate(-64 -236) translate(64 236)"/>
            </g>
        </g>
    </g>
</svg>
