<svg xmlns="http://www.w3.org/2000/svg" xmlns:xlink="http://www.w3.org/1999/xlink" width="118" height="53" viewBox="0 0 118 53">
    <defs>
        <path id="pwkzzdryva" d="M0.775 0.949L7.775 0.949 7.775 7.949 0.775 7.949z"/>
    </defs>
    <g fill="none" fill-rule="evenodd">
        <g>
            <g>
                <g>
                    <path fill="#FFF" d="M21 30.451c3.28 0 5.8-.84 7.56-2.52 1.76-1.68 2.64-4.04 2.64-7.08 0-3.039-.88-5.4-2.64-7.08-1.76-1.68-4.28-2.52-7.56-2.52H8.7c-.6 0-.9.3-.9.9v17.4c0 .6.3.9.9.9H21zm-13.2 18.3c0 .6.3.9.9.9h3.6c.6 0 .9.3.9.9 0 .6-.3.9-.9.9H.9c-.6 0-.9-.3-.9-.9 0-.6.3-.9.9-.9h4.2c.6 0 .9-.3.9-.9v-36.6c0-.6-.3-.9-.9-.9H.9c-.6 0-.9-.3-.9-.9 0-.6.3-.9.9-.9H21c3.879 0 6.85 1 8.91 3 2.06 2 3.09 4.8 3.09 8.4 0 3.6-1.03 6.4-3.09 8.4-2.06 2.001-5.031 3-8.91 3h-.3c-.321 0-.55.09-.69.27-.14.18-.111.39.09.63l11.4 15.6c.52.6 1.02.9 1.5.9h3.9c.6 0 .9.3.9.9 0 .6-.3.9-.9.9h-12c-.6 0-.9-.3-.9-.9 0-.6.3-.9.9-.9h3.9c.72 0 .82-.3.3-.9l-12-16.5H8.7c-.6 0-.9.3-.9.9v15.6zM42.24 34.531c0 .48.28.72.84.72h22.74c.6 0 .9-.3.9-.9 0-3.2-1.17-5.949-3.51-8.25-2.34-2.3-5.3-3.45-8.88-3.45-3.58 0-6.49 1.26-8.73 3.78-2.24 2.52-3.36 5.22-3.36 8.1m21.6 12.72c.64-.48 1.13-.88 1.47-1.2.34-.32.61-.43.81-.33.2.1.45.321.75.66.3.34.21.711-.27 1.11-1.44 1.24-3.1 2.31-4.98 3.21-1.88.9-4.28 1.35-7.2 1.35-4.24 0-7.65-1.46-10.23-4.38-2.58-2.919-3.87-6.66-3.87-11.22 0-4.56 1.29-8.3 3.87-11.22 2.58-2.919 5.96-4.38 10.14-4.38 4.18 0 7.59 1.32 10.23 3.96 2.64 2.64 3.96 5.82 3.96 9.54v.9c0 1.2-.6 1.8-1.8 1.8H43.08c-.68 0-.98.3-.9.9.24 3.48 1.43 6.4 3.57 8.76 2.14 2.361 5.08 3.54 8.82 3.54s6.83-.999 9.27-3M98.88 28.951c-3.24-4.2-7.042-6.3-11.4-6.3-3.24 0-5.962 1.28-8.16 3.84-2.16 2.601-3.24 5.96-3.24 10.08s1.14 7.431 3.42 9.93c2.28 2.5 5.28 3.75 9 3.75 3.678 0 6.758-.999 9.24-3 .638-.48 1.14-.88 1.5-1.2.36-.32.638-.43.84-.33.198.1.398.27.6.51.2.24.3.45.3.63s-.18.45-.54.81c-1.32 1.161-2.932 2.18-4.83 3.06-1.9.88-4.312 1.32-7.23 1.32-4.24 0-7.65-1.45-10.23-4.35-2.58-2.9-3.87-6.65-3.87-11.25s1.26-8.35 3.78-11.25c2.52-2.9 5.708-4.35 9.57-4.35 3.858 0 7.29 1.5 10.29 4.5.638.56.96.36.96-.6v-2.4c0-.6.3-.9.9-.9.6 0 .9.3.9.9v9.6c0 .6-.3.9-.9.9-.6 0-.9-.3-.9-.9v-3z" transform="translate(-129 -107) translate(0 107) translate(129)"/>
                    <g transform="translate(-129 -107) translate(0 107) translate(129) translate(110 .051)">
                        <mask id="cgbw6biyeb" fill="#fff">
                            <use xlink:href="#pwkzzdryva"/>
                        </mask>
                        <path fill="#FFF" d="M7.775 4.449c0 1.933-1.567 3.5-3.5 3.5s-3.5-1.567-3.5-3.5 1.567-3.5 3.5-3.5 3.5 1.567 3.5 3.5" mask="url(#cgbw6biyeb)"/>
                    </g>
                </g>
            </g>
        </g>
    </g>
</svg>
